<svg preserveAspectRatio="none" width="100%" height="100%" overflow="visible" style="display: block;" viewBox="0 0 43.8621 40.7455" fill="none" xmlns="http://www.w3.org/2000/svg">
<g id="Group">
<path id="Vector" d="M11.6035 6.92426L6.30103 3.52676C5.84353 3.24551 5.76853 2.61176 6.14728 2.23301L8.13853 0.241765C8.52103 -0.140735 9.16603 -0.0582351 9.43978 0.410515L12.7548 5.79927C13.1898 6.54177 12.3385 7.37426 11.6035 6.92426Z" fill="var(--fill-0, #FFC107)"/>
<path id="Vector_2" d="M6.96853 23.2668L0.811031 23.3905C0.274781 23.4018 -0.107718 23.9118 0.0272815 24.4293L0.743532 27.1518C0.882282 27.6768 1.47853 27.928 1.95103 27.6655L7.39228 24.8193C8.14228 24.3955 7.83103 23.248 6.96853 23.2668Z" fill="var(--fill-0, #FFC107)"/>
<path id="Vector_3" d="M21.271 33.7255L19.921 39.7218C19.7973 40.243 20.191 40.7455 20.7273 40.7455H23.5435C24.0873 40.7455 24.481 40.2318 24.346 39.7068L22.8798 33.7105C22.6623 32.8743 21.4735 32.8855 21.271 33.7255Z" fill="var(--fill-0, #FFC107)"/>
<path id="Vector_4" d="M32.2585 6.92426L37.561 3.52676C38.0185 3.24551 38.0935 2.61176 37.7148 2.23301L35.7235 0.241765C35.341 -0.140735 34.696 -0.0582351 34.4223 0.410515L31.1073 5.79927C30.6723 6.54177 31.5235 7.37426 32.2585 6.92426Z" fill="var(--fill-0, #FFC107)"/>
<path id="Vector_5" d="M36.8935 23.2668L43.051 23.3905C43.5873 23.4018 43.9698 23.9118 43.8348 24.4293L43.1185 27.1518C42.9798 27.6768 42.3835 27.928 41.911 27.6655L36.4698 24.8193C35.7198 24.3955 36.031 23.248 36.8935 23.2668Z" fill="var(--fill-0, #FFC107)"/>
</g>
</svg>
