<svg preserveAspectRatio="none" width="100%" height="100%" overflow="visible" style="display: block;" viewBox="0 0 35.2858 45.0007" fill="none" xmlns="http://www.w3.org/2000/svg">
<g id="Group">
<path id="Vector" d="M6.98284 13.7744C6.76909 16.0544 6.61909 20.0894 7.96534 21.8069C7.96534 21.8069 7.33159 17.3744 13.0128 11.8132C15.3003 9.57444 15.8291 6.52944 15.0303 4.24569C14.5766 2.95194 13.7478 1.88319 13.0278 1.13694C12.6078 0.698195 12.9303 -0.0255553 13.5416 0.000694712C17.2391 0.165695 23.2316 1.19319 25.7778 7.58319C26.8953 10.3882 26.9778 13.2869 26.4453 16.2344C26.1078 18.1169 24.9078 22.3019 27.6453 22.8157C29.5991 23.1832 30.5441 21.6307 30.9678 20.5132C31.1441 20.0482 31.7553 19.9319 32.0853 20.3032C35.3853 24.0569 35.6666 28.4782 34.9841 32.2844C33.6641 39.6419 26.2128 44.9969 18.8103 44.9969C9.56284 44.9969 2.20159 39.7057 0.292843 30.1282C-0.475907 26.2619 -0.0859058 18.6119 5.87659 13.2119C6.31909 12.8069 7.04284 13.1669 6.98284 13.7744Z" fill="url(#paint0_radial_0_4)"/>
<g id="Group_2">
<path id="Vector_2" d="M22.1891 27.5332C18.7803 23.1457 20.3066 18.1394 21.1428 16.1444C21.2553 15.8819 20.9553 15.6344 20.7191 15.7957C19.2528 16.7932 16.2491 19.1407 14.8503 22.4444C12.9566 26.9107 13.0916 29.0969 14.2128 31.7669C14.8878 33.3757 14.1041 33.7169 13.7103 33.7769C13.3278 33.8369 12.9753 33.5819 12.6941 33.3157C11.8878 32.5469 11.3066 31.5457 11.0291 30.4657C10.9691 30.2332 10.6653 30.1694 10.5266 30.3607C9.47659 31.8119 8.93284 34.1407 8.90659 35.7869C8.82409 40.8757 13.0278 45.0007 18.1128 45.0007C24.5216 45.0007 29.1903 37.9132 25.5078 31.9882C24.4391 30.2632 23.4341 29.1344 22.1891 27.5332Z" fill="url(#paint1_radial_0_4)"/>
</g>
</g>
<defs>
<radialGradient id="paint0_radial_0_4" cx="0" cy="0" r="1" gradientUnits="userSpaceOnUse" gradientTransform="translate(16.9789 45.1136) rotate(-179.751) scale(26.4704 43.4326)">
<stop offset="0.3144" stop-color="#FF9800"/>
<stop offset="0.6616" stop-color="#FF6D00"/>
<stop offset="0.9715" stop-color="#F44336"/>
</radialGradient>
<radialGradient id="paint1_radial_0_4" cx="0" cy="0" r="1" gradientTransform="matrix(-0.279744 27.6947 20.8423 0.210605 18.4653 18.7728)" gradientUnits="userSpaceOnUse">
<stop offset="0.2141" stop-color="#FFF176"/>
<stop offset="0.3275" stop-color="#FFF27D"/>
<stop offset="0.4868" stop-color="#FFF48F"/>
<stop offset="0.6722" stop-color="#FFF7AD"/>
<stop offset="0.7931" stop-color="#FFF9C4"/>
<stop offset="0.8221" stop-color="#FFF8BD" stop-opacity="0.804"/>
<stop offset="0.8627" stop-color="#FFF6AB" stop-opacity="0.529"/>
<stop offset="0.9101" stop-color="#FFF38D" stop-opacity="0.2088"/>
<stop offset="0.9409" stop-color="#FFF176" stop-opacity="0"/>
</radialGradient>
</defs>
</svg>
