<svg preserveAspectRatio="none" width="100%" height="100%" overflow="visible" style="display: block;" viewBox="0 0 45 40.8956" fill="none" xmlns="http://www.w3.org/2000/svg">
<g id="Group">
<path id="Vector" d="M35.6456 29.2294C35.6456 29.2294 29.9794 34.5469 22.4869 34.5469C14.9944 34.5469 9.33187 29.2294 9.33187 29.2294C9.33187 29.2294 8.27812 24.1706 11.0006 15.4369C12.4369 10.8319 32.8744 10.3631 34.4756 14.3906C37.1981 21.2269 35.6456 29.2294 35.6456 29.2294Z" fill="var(--fill-0, #424242)"/>
<path id="Vector_2" d="M9.33188 29.2294L11.1281 30.6694C11.1281 30.6694 11.1131 27.8194 11.9944 25.1606C12.3244 24.1669 13.5019 23.7506 14.3869 24.3094L21.2456 28.6106C22.0144 29.0906 22.9819 29.0981 23.7581 28.6294C27.0356 26.6419 35.5856 21.4406 35.9756 21.1219C35.9756 21.1219 35.9756 20.4806 35.8144 19.6631L9.23438 19.6969L9.33188 29.2294Z" fill="var(--fill-0, #212121)"/>
<path id="Vector_3" d="M44.5519 14.4581L23.2519 27.1444C22.7869 27.4219 22.2056 27.4219 21.7369 27.1444L0.444375 14.4581C-0.148125 14.1056 -0.148125 13.2469 0.444375 12.8944L21.7444 0.208125C22.2094 -0.069375 22.7906 -0.069375 23.2594 0.208125L44.5594 12.8944C45.1481 13.2469 45.1481 14.1056 44.5519 14.4581Z" fill="var(--fill-0, #424242)"/>
<path id="Vector_4" d="M22.5131 26.2144C22.5094 26.2144 22.5019 26.2181 22.4981 26.2181C22.4381 26.2181 22.3781 26.2031 22.3256 26.1694L0.0656248 13.3369C0.0656248 13.3369 -0.0431252 13.5431 0.0656248 13.9144C0.178125 14.2856 0.350625 14.4056 0.444375 14.4619L21.7444 27.1481C21.9769 27.2869 22.2394 27.3581 22.5019 27.3581C22.5056 27.3581 22.5131 27.3581 22.5169 27.3581V26.2144H22.5131Z" fill="var(--fill-0, #9E9E9E)"/>
<path id="Vector_5" d="M22.4981 26.2144C22.5019 26.2144 22.5094 26.2181 22.5131 26.2181C22.5731 26.2181 22.6331 26.2031 22.6856 26.1694L44.9456 13.3369C44.9456 13.3369 45.0544 13.5431 44.9456 13.9144C44.8331 14.2856 44.6606 14.4056 44.5669 14.4619L23.2669 27.1481C23.0344 27.2869 22.7719 27.3581 22.5094 27.3581C22.5056 27.3581 22.4981 27.3581 22.4944 27.3581V26.2144H22.4981Z" fill="var(--fill-0, #616161)"/>
<path id="Vector_6" d="M11.7919 21.2194L11.9119 20.1656C11.9119 20.1656 21.1031 15.1669 22.0106 14.6419C22.9181 14.1169 23.8706 13.5319 24.2944 13.0631C25.0444 12.2381 24.5044 11.7206 24.5044 11.7206C24.5044 11.7206 23.9119 12.6806 22.4981 12.5119C21.6881 12.4144 20.6344 11.7581 20.4581 11.4506C20.2819 11.1431 10.0819 18.9131 10.0819 18.9131L10.0106 20.1619L11.7919 21.2194Z" fill="var(--fill-0, #424242)"/>
<path id="Vector_7" d="M24.5044 11.7244C23.5219 13.0969 21.8569 12.4969 21.8569 12.4969C21.8569 12.4969 16.6406 14.9981 16.4456 14.6194C16.2506 14.2406 20.7544 11.9231 20.7544 11.9231C20.7544 11.9231 20.5031 11.0006 20.5294 10.6069C20.5294 10.6069 12.3844 15.7894 9.32812 17.5331C7.72687 18.4481 7.38562 19.3106 7.38937 20.5256C7.38937 21.0581 7.39687 22.7869 7.40437 23.8181C7.40437 24.0094 7.32187 24.1894 7.17562 24.3094C6.74437 24.6656 6.46687 25.2019 6.46687 25.8056C6.46687 26.3794 6.71812 26.8931 7.11562 27.2494C7.32937 27.4406 7.28437 27.8531 7.30312 28.1194C7.34062 28.6294 7.30312 28.8619 7.09312 29.3344C6.88687 29.7956 6.69562 30.2681 6.56437 30.7556C6.46312 31.1306 6.39562 31.5169 6.32812 31.8994C5.88187 34.4606 5.67937 37.1981 4.49812 39.5531C4.40437 39.7369 4.47937 39.9619 4.66687 40.0556C4.71937 40.0819 4.77937 40.0969 4.83562 40.0969C4.97437 40.0969 5.10562 40.0219 5.17312 39.8906C5.78812 38.6644 6.10687 37.3219 6.36937 35.9906C6.35437 37.1944 6.34687 38.4094 6.30562 39.7219C6.29812 39.9769 6.27937 40.4906 6.51187 40.6031C7.38562 41.0269 7.38562 39.7219 7.38562 39.7219C7.38562 39.7219 7.39687 40.8956 8.58562 40.8956C9.77437 40.8956 9.86062 39.7219 9.86062 39.7219C9.86062 39.7219 9.94687 40.7981 10.5581 40.7456C10.8056 40.7231 11.1319 40.5731 11.0156 39.2869C10.8994 38.0044 10.6106 33.4069 10.4869 31.9519C10.3144 29.9381 9.65437 28.7419 9.51937 28.0294C9.47062 27.7594 9.46687 27.4781 9.68062 27.3019C10.1119 26.9456 10.3894 26.4094 10.3894 25.8056C10.3894 25.2244 10.1344 24.7031 9.72937 24.3469C9.57562 24.2119 9.49687 24.0169 9.51187 23.8144C9.58312 22.8431 9.66187 21.4331 9.72562 21.1069C10.0031 19.6406 10.7269 19.3781 11.4694 18.9431C12.2119 18.5044 22.9669 13.6219 23.5931 13.2056C24.7519 12.4294 24.5044 11.7244 24.5044 11.7244Z" fill="var(--fill-0, #E2A610)"/>
<path id="Vector_8" d="M24.5044 11.7244C23.5781 13.0331 21.6544 12.4481 21.6544 12.4481C21.6544 12.4481 16.7381 14.6269 17.0644 14.2331C17.3869 13.8394 20.7544 11.9231 20.7544 11.9231C20.7544 11.9231 20.5031 11.0006 20.5294 10.6069C20.5294 10.6069 12.2419 15.3956 9.02812 17.6981C8.19937 18.2944 7.17187 19.2694 8.00812 20.2406C8.39437 20.6869 9.14062 20.7806 9.61687 20.4281C9.90562 20.2181 10.1306 19.9106 10.3856 19.6669C10.7006 19.3594 11.0831 19.1644 11.4581 18.9431C12.2006 18.5044 22.9556 13.6219 23.5819 13.2056C24.7519 12.4294 24.5044 11.7244 24.5044 11.7244Z" fill="var(--fill-0, #FFCA28)"/>
<path id="Vector_9" d="M8.28938 29.3944C7.79438 29.3944 7.46063 29.3531 7.15688 29.2819C7.04438 29.2556 6.96938 29.1544 6.97688 29.0381L7.07438 27.6056C7.08563 27.4594 7.22438 27.3581 7.36688 27.3994C7.70438 27.4969 8.37938 27.5944 9.48188 27.3619C9.61688 27.3319 9.75188 27.4256 9.76688 27.5644L9.91688 28.9894C9.92813 29.1056 9.85313 29.2144 9.74063 29.2406C9.16688 29.3719 8.75063 29.3944 8.28938 29.3944Z" fill="var(--fill-0, #9E740B)"/>
<path id="Vector_10" d="M35.6456 29.2294C35.6456 29.2294 36.3094 25.7644 36.0431 22.0781C35.9981 21.4556 35.6156 20.9194 35.3194 23.0981C35.1506 24.3469 34.7831 28.0856 34.1569 30.4219C35.1131 29.7319 35.6456 29.2294 35.6456 29.2294Z" fill="var(--fill-0, #616161)"/>
<path id="Vector_11" d="M23.1469 8.74313C23.4206 8.82938 23.6719 9.03938 23.7431 9.32063C23.8369 9.69563 23.6006 10.0706 23.3456 10.3631C22.8469 10.9369 22.1606 11.4394 21.3994 11.4131C21.1481 11.4056 20.8781 11.3231 20.7244 11.1244C20.6156 10.9856 20.5781 10.8056 20.5669 10.6294C20.4994 9.34313 21.9544 8.36813 23.1469 8.74313Z" fill="var(--fill-0, #616161)"/>
</g>
</svg>
