<svg preserveAspectRatio="none" width="100%" height="100%" overflow="visible" style="display: block;" viewBox="0 0 44.499 42.8325" fill="none" xmlns="http://www.w3.org/2000/svg">
<g id="Group">
<g id="Group_2">
<path id="Vector" d="M43.9378 20.6025L38.7141 18.9188C35.3728 17.8163 33.4153 15.1125 32.4966 11.715L30.1978 0.5175C30.1378 0.29625 29.9916 0 29.5416 0C29.1628 0 28.9453 0.29625 28.8853 0.5175L26.5866 11.7188C25.6641 15.1163 23.7103 17.82 20.3691 18.9225L15.1453 20.6063C14.4066 20.8463 14.3953 21.8888 15.1303 22.14L20.3916 23.9513C23.7216 25.0575 25.6641 27.7575 26.5866 31.14L28.8891 42.2137C28.9491 42.435 29.0728 42.8325 29.5453 42.8325C30.0441 42.8325 30.1416 42.435 30.2016 42.2137L32.5041 31.14C33.4266 27.7538 35.3691 25.0538 38.6991 23.9513L43.9603 22.14C44.6878 21.885 44.6766 20.8425 43.9378 20.6025Z" fill="var(--fill-0, #FDD835)"/>
<path id="Vector_2" d="M44.4328 21.0713C44.3503 20.865 44.1891 20.685 43.9378 20.6025L38.7141 18.9187C35.3728 17.8162 33.4153 15.1125 32.4966 11.715L30.1978 0.5175C30.1641 0.39 30.0441 0.1575 29.9053 0.0900001L30.6478 11.3287C31.1991 16.4587 31.6716 18.8737 35.7666 19.5787C39.2841 20.1862 43.3528 20.8838 44.4328 21.0713Z" fill="var(--fill-0, #FFEE58)"/>
<path id="Vector_3" d="M44.4441 21.6563L35.3841 23.7338C32.1928 24.5438 30.4341 26.3925 30.4341 31.23L29.5453 42.8325C29.8491 42.8025 30.0966 42.6375 30.2016 42.2137L32.5041 31.14C33.4266 27.7538 35.3691 25.0538 38.6991 23.9513L43.9603 22.14C44.2078 22.05 44.3653 21.8663 44.4441 21.6563Z" fill="var(--fill-0, #F4B400)"/>
</g>
<g id="Group_3">
<path id="Vector_4" d="M14.0203 30.345C10.8966 29.3137 10.6116 28.1513 10.0866 26.19L8.77784 21.6C8.69909 21.3038 7.92659 21.3038 7.84409 21.6L6.95534 25.8413C6.42659 27.795 5.30159 29.3475 3.38159 29.9812L0.321588 31.3087C-0.102162 31.4475 -0.109662 32.0475 0.314088 32.19L3.39659 33.2813C5.30909 33.915 6.42659 35.4675 6.95909 37.4138L7.84784 41.4713C7.93034 41.7675 8.69909 41.7675 8.77784 41.4713L9.82034 37.4325C10.3491 35.475 11.1591 33.9188 13.7578 33.2813L16.6528 32.19C17.0766 32.0438 17.0728 31.4438 16.6453 31.305L14.0203 30.345Z" fill="var(--fill-0, #FDD835)"/>
<path id="Vector_5" d="M9.02534 26.1225C9.34409 29.07 9.50534 29.8875 11.8941 30.4988L16.8703 31.47C16.8178 31.3987 16.7428 31.3387 16.6416 31.3087L14.0166 30.345C11.2753 29.4075 10.5178 28.215 10.0041 25.83C9.49034 23.445 8.94284 21.8888 8.94284 21.8888C8.75159 21.375 8.47784 21.4012 8.47784 21.4012L9.02534 26.1225Z" fill="var(--fill-0, #FFEE58)"/>
<path id="Vector_6" d="M9.11534 36.4125C9.11534 33.6338 10.6341 32.2575 13.0491 32.2575L16.8066 32.1038C16.8066 32.1038 16.5891 32.3925 16.2103 32.4825L13.7578 33.2813C11.6766 34.1175 10.7278 34.5375 10.0828 37.3838C10.0828 37.3838 9.25034 40.695 9.09284 41.0438C8.87534 41.5313 8.61659 41.6325 8.61659 41.6325L9.11534 36.4125Z" fill="var(--fill-0, #F4B400)"/>
</g>
<path id="Vector_7" d="M20.7441 8.34375C20.9541 8.2725 20.9466 7.9725 20.7328 7.9125L17.8378 7.1325C17.2303 6.9675 16.7578 6.49875 16.5853 5.895L15.4453 1.18875C15.3891 0.96 15.0628 0.96 15.0066 1.1925L13.9341 5.88C13.7691 6.5025 13.2816 6.9825 12.6591 7.14375L9.78284 7.89C9.56909 7.94625 9.55409 8.24625 9.76409 8.32125L12.7978 9.37125C13.3416 9.55875 13.7616 10.0012 13.9266 10.5525L15.0103 14.8988C15.0666 15.1238 15.3891 15.1275 15.4453 14.8988L16.5666 10.5375C16.7353 9.98625 17.1591 9.5475 17.7066 9.36375L20.7441 8.34375Z" fill="var(--fill-0, #F4B400)" stroke="var(--stroke-0, #F4B400)" stroke-miterlimit="10"/>
</g>
</svg>
