<svg width="136" height="30" viewBox="0 0 136 30" fill="none" xmlns="http://www.w3.org/2000/svg">
<path d="M124.724 8.80957L128.04 19.791L131.184 8.80957H136L130.146 25.0781C129.78 26.085 129.367 26.9177 128.905 27.5762C128.444 28.2539 127.848 28.7767 127.117 29.1445C126.406 29.5319 125.512 29.7256 124.436 29.7256H120.716V26.1523H123.195C123.637 26.1523 123.984 26.1136 124.233 26.0361C124.484 25.9587 124.685 25.8327 124.839 25.6582C125.012 25.5033 125.176 25.2617 125.33 24.9326L125.618 24.2061L119.937 8.80957H124.724ZM25.7539 0V26.7256H0.0078125L7.73145 21.6826C7.16367 21.8675 6.55954 21.9678 5.93164 21.9678C2.65523 21.9676 0.000144481 19.2605 0 15.916C0 12.9017 2.16408 10.4074 4.99414 9.9502H0.0078125V0H25.7539ZM47.5469 3V17.0889C47.5469 19.2965 46.903 21.0491 45.6152 22.3467C44.327 23.625 42.5096 24.2646 40.1641 24.2646C37.857 24.2646 36.0789 23.6249 34.8291 22.3467C33.5986 21.0685 32.9834 19.316 32.9834 17.0889V15.9268H37.5977V17.0889C37.5977 18.0957 37.7994 18.851 38.2031 19.3545C38.6067 19.858 39.2606 20.1103 40.1641 20.1104C41.0871 20.1104 41.7504 19.858 42.1543 19.3545C42.558 18.851 42.7598 18.0957 42.7598 17.0889V3H47.5469ZM56.6357 8.46094C58.2699 8.46094 59.6738 8.80965 60.8467 9.50684C62.0385 10.1847 62.9325 11.1245 63.5283 12.3252C64.1435 13.5064 64.4511 14.852 64.4512 16.3623C64.4512 17.8729 64.1436 19.229 63.5283 20.4297C62.9325 21.611 62.0385 22.5509 60.8467 23.248C59.6738 23.9258 58.2698 24.2646 56.6357 24.2646C55.0017 24.2646 53.5885 23.9258 52.3965 23.248C51.2238 22.5509 50.3301 21.611 49.7148 20.4297C49.1188 19.229 48.8203 17.8729 48.8203 16.3623C48.8204 14.852 49.1189 13.5064 49.7148 12.3252C50.3301 11.1245 51.2238 10.1847 52.3965 9.50684C53.5886 8.80968 55.0017 8.46097 56.6357 8.46094ZM112.211 8.46094C113.826 8.46094 115.21 8.79987 116.363 9.47754C117.536 10.1359 118.421 11.0949 119.017 12.3535C119.613 13.6123 119.911 15.1135 119.911 16.8564V17.7285H108.865C108.981 18.3868 109.182 18.9583 109.471 19.4424C109.759 19.9071 110.134 20.2748 110.596 20.5459C111.076 20.7977 111.615 20.9238 112.211 20.9238C112.999 20.9238 113.643 20.7877 114.143 20.5166C114.662 20.2261 115.075 19.8098 115.383 19.2676H119.651C119.151 20.7974 118.258 22.0174 116.97 22.9277C115.682 23.8186 114.095 24.2646 112.211 24.2646C110.615 24.2646 109.231 23.9259 108.058 23.248C106.904 22.5509 106.02 21.611 105.405 20.4297C104.809 19.229 104.511 17.8729 104.511 16.3623C104.511 14.852 104.809 13.5064 105.405 12.3252C106.02 11.1245 106.904 10.1847 108.058 9.50684C109.231 8.80965 110.615 8.46094 112.211 8.46094ZM70.21 8.80957V23.916H65.7695V8.80957H70.21ZM81.1689 8.46094C82.2648 8.46094 83.2069 8.69352 83.9951 9.1582C84.8026 9.623 85.4177 10.3204 85.8408 11.25C86.2829 12.1796 86.5039 13.3221 86.5039 14.6777V23.916H82.0635V15.2295C82.0634 14.3389 81.8614 13.6322 81.458 13.1094C81.0734 12.5865 80.429 12.3252 79.5254 12.3252C78.9871 12.3252 78.4969 12.4505 78.0547 12.7021C77.6124 12.9345 77.2564 13.3122 76.9873 13.835C76.718 14.3385 76.584 14.9683 76.584 15.7236V23.916H72.1133V8.80957H76.4688V10.8428C77.0263 10.1071 77.6992 9.52654 78.4873 9.10059C79.2755 8.67454 80.1694 8.46097 81.1689 8.46094ZM94.4268 4.16211V8.80957H97.5127V12.0928H94.4268V23.916H89.9854V12.0928H87.4473V8.80957H89.9854V4.16211H94.4268ZM103.186 23.916H98.7158V3H103.186V23.916ZM56.6357 12.0928C55.8668 12.0928 55.2321 12.2667 54.7324 12.6152C54.2518 12.9638 53.8966 13.4578 53.666 14.0967C53.4354 14.7163 53.3194 15.4716 53.3193 16.3623C53.3193 17.2531 53.4354 18.0182 53.666 18.6572C53.8966 19.2769 54.2517 19.7618 54.7324 20.1104C55.2321 20.4589 55.8668 20.6328 56.6357 20.6328C57.4048 20.6328 58.03 20.4589 58.5107 20.1104C59.0105 19.7617 59.3758 19.277 59.6064 18.6572C59.837 18.0182 59.9531 17.253 59.9531 16.3623C59.9531 15.4716 59.837 14.7163 59.6064 14.0967C59.3758 13.4576 59.0104 12.9638 58.5107 12.6152C58.03 12.2666 57.4048 12.0928 56.6357 12.0928ZM6.86914 9.9502C9.69931 10.4073 11.8623 12.9016 11.8623 15.916C11.8622 17.5003 11.2635 18.935 10.2891 20.0146L25.7031 9.9502H6.86914ZM112.211 11.8018C111.327 11.8018 110.596 12.0731 110.02 12.6152C109.462 13.1381 109.087 13.8743 108.895 14.8232H115.527C115.335 13.8743 114.951 13.1381 114.374 12.6152C113.816 12.073 113.095 11.8018 112.211 11.8018ZM70.2393 3V6.71777H65.7695V3H70.2393Z" fill="currentColor"></path>
</svg>
